<svg xmlns="http://www.w3.org/2000/svg" fill="none" viewBox="0 0 30 30">
  <path d="M15.006 30h-.013c-.5 0-16.35-.08-14.9-9.057a7.044 7.044 0 01.108-.552l.165-.696c.036-.148.072-.296.11-.443l.103-.41.1-.389.004-.013a38.926 38.926 0 01.224-.824 42.441 42.441 0 011.798-5.193c.783-1.837 1.769-3.488 2.914-5.114C7.284 4.946 9.251 2.36 11.753.856 12.72.275 13.868-.09 15 .02c1.132-.11 2.28.256 3.246.837 2.502 1.504 4.47 4.09 6.134 6.453 1.145 1.626 2.131 3.277 2.913 5.114.889 2.082 1.573 4.25 2.134 6.447.059.228.116.457.172.685l.003.015c.033.132.065.265.096.398.014.06.03.12.043.18.02.08.038.163.057.243 2.2 9.526-14.28 9.61-14.792 9.61z" fill="url(#P__PzIIagYa)"/>
  <circle cx="19" cy="8" r="2" fill="#D7D9FF"/>
  <path d="M15.005 30h-.012c-.501 0-16.35-.08-14.9-9.057a7.113 7.113 0 01.108-.552l.165-.696c.036-.148.072-.296.11-.443a85.237 85.237 0 01.203-.799l.004-.013c.064-.242.13-.485.197-.726l.107-.08c1.67-1.265 3.62-2.985 4.136-4.45 1.579-4.473 4.715-1.922 5.99-.62a1.228 1.228 0 001.527.193c.662-.411 1.582-1.205 2.49-2.72.677-1.13 2.085-1.577 3.26-1.003 1.901.928 5.105 3.303 10.364 9.051.243.266.467.528.672.785.06.228.116.457.172.685l.004.015c.032.132.065.265.096.398.014.06.03.12.043.18.02.08.038.163.057.243 2.2 9.526-14.281 9.61-14.793 9.61z" fill="#8589EB"/>
  <path opacity=".15" d="M15.005 30h-.012c-.501 0-16.35-.08-14.9-9.057a7.113 7.113 0 01.108-.552l.165-.696c.036-.148.072-.296.11-.443.761-.159 1.595-.053 2.225.767.062.08.125.16.19.238.33.4.693.754 1.097 1.027.289.195.598.349.933.448.598.178 1.278.181 2.06-.06.978-.302 2.118-.99 3.463-2.205 4.036-3.645 9.707-.994 11.56 1.436 1.162 1.522 3.586 1.195 5.173.73.284-.082.564-.175.836-.284a6.814 6.814 0 00.918-.443c.144-.085.285-.175.422-.273.127-.09.254-.19.326-.329a.875.875 0 00.062-.156c.02.081.038.163.057.244C31.998 29.916 15.517 30 15.005 30z" fill="#fff"/>
  <path opacity=".15" d="M15.005 30h-.012c-.501 0-16.35-.08-14.9-9.057a7.052 7.052 0 01.108-.551c.054-.233.109-.465.165-.697.036-.148.072-.296.11-.443.033-.136.067-.273.103-.41l.1-.389.004-.013a38.916 38.916 0 01.224-.824l.08.018c.381.09.76.263 1.127.55.587.46 1.139 1.211 1.606 2.367.079.194.155.4.229.619.013.038.025.076.04.114.416 1.19 1.11 2.439 2.288 2.953.116.051.238.094.363.13 1.53.433 3.27-.412 4.458-1.342.383-.298.737-.636 1.138-.907 2.681-1.811 6.003.924 7.614 2.921.075.094.15.188.222.282.275.356.558.638.847.85 2.54 1.883 5.484-1.503 7.42-4.488A33.597 33.597 0 0029.361 20c.076-.133.148-.263.217-.387l.024-.043c.032.133.065.265.096.398.014.06.03.12.043.18.02.081.038.163.057.244C31.998 29.917 15.517 30 15.005 30z" fill="#fff"/>
  <path opacity=".15" d="M15.005 30h-.012c-.501 0-16.35-.08-14.9-9.057.704-.417 1.752-.868 2.797-.686.28.049.558.142.83.294.425.236.834.614 1.201 1.18.209.323.405.706.582 1.159.192.492.449.957.774 1.347.518.62 1.208 1.051 2.083 1.1 1.396.078 2.671-.665 3.779-1.429 2.518-1.736 4.664 1.41 7.22 2.057a6.592 6.592 0 001.56.206c2.849.03 4.94-1.907 6.15-3.447.425-.541.742-1.033.944-1.375.176-.296.266-.477.266-.477s.417-.708 1.082-.872a1.136 1.136 0 01.337-.033c.014.061.03.12.043.181.02.081.038.163.057.244C31.998 29.916 15.517 30 15.005 30z" fill="#fff"/>
  <path opacity=".15" d="M15.005 30h-.012c-.501 0-16.35-.08-14.9-9.057a7.113 7.113 0 01.108-.551 92.578 92.578 0 01.274-1.14 85.237 85.237 0 01.204-.799l.004-.013c.467-.134.953-.23 1.431-.256 1.31-.072 2.56.38 3.2 2.015.322.826.906 1.252 1.667 1.473.412.12.876.178 1.38.206 1.395.078 2.528-.94 3.777-1.429 5.797-2.268 7.321 1.395 9.783 2.345 2.3.887 3.967.608 5.148-.07.51-.293.93-.66 1.27-1.041.233-.26.429-.526.592-.777a6.717 6.717 0 00.647-1.293l.02-.057.004.014c.032.133.065.265.096.398.014.06.03.12.043.18.02.081.038.163.057.244C31.998 29.917 15.517 30 15.005 30z" fill="#fff"/>
  <defs>
    <radialGradient id="P__PzIIagYa" cx="0" cy="0" r="1" gradientUnits="userSpaceOnUse" gradientTransform="matrix(14.9075 0 0 15.0942 15 15)">
      <stop offset="0" stop-color="#8485E0"/>
      <stop offset="1" stop-color="#7680FC"/>
    </radialGradient>
  </defs>
</svg>
