<svg xmlns="http://www.w3.org/2000/svg" fill="none" viewBox="0 0 329 14">
  <path d="M170.047 11.516c39.226 0 71.026-1.24 71.026-2.77s-31.8-2.77-71.026-2.77c-39.227 0-71.026 1.24-71.026 2.77s31.799 2.77 71.026 2.77z" fill="#F9F0E3"/>
  <path opacity=".5" d="M45.087 6.848c24.9 0 45.086-1.533 45.086-3.424C90.173 1.534 69.987 0 45.087 0 20.186 0 0 1.533 0 3.424s20.186 3.424 45.087 3.424z" fill="#F9EAD4"/>
  <path d="M328.464 11.523c0 1.156-15.349 2.087-34.285 2.087-18.937 0-34.286-.931-34.286-2.087 0-1.156 15.349-2.086 34.286-2.086 18.929 0 34.285.93 34.285 2.086z" fill="#F9F0E3"/>
</svg>
